# xmcd
#
# Track frame offsets: 
#        150
#        1185
#        3237
#        7280
#        19895
#        29330
#        40580
#        49415
#        58175
#        68295
#        77860
#        86912
#        96025
#        98097
#        110387
#        123432
#        135035
#        144017
#        145960
#        157905
#        167012
#        176720
#        179887
#        191700
#        204387
#        213200
#        221670
#        233042
#        240497
#        253345
#        263307
#        271492
#        280975
#        283090
#
# Disc length: 3907 seconds
#
# Revision: 1
# Processed by: cddbd v1.5.2PL0 Copyright (c) Steve Scherf et al.
# Submitted via: ExactAudioCopy v1.0b3
#
DISCID=db0f4122
DTITLE=Beatles, The - Live At The BBC [Disc 1]
DYEAR=1994
DGENRE=Beatles
TTITLE0=Beatle Greetings
TTITLE1=From Us To You
TTITLE2=Riding On A Bus
TTITLE3=I Got A Woman
TTITLE4=Too Much Monkey Business
TTITLE5=Keep Your Hands Off My Baby
TTITLE6=I'll Be On My Way
TTITLE7=Young Blood
TTITLE8=A Shot Of Rhythm And Blues
TTITLE9=Sure To Fall (In Love With You)
TTITLE10=Some Other Guy
TTITLE11=Thank You Girl
TTITLE12=Sha La La La La!
TTITLE13=Baby It's You
TTITLE14=That's All Right (Mama)
TTITLE15=Carol
TTITLE16=Soldier Of Love
TTITLE17=A Little Rhyme
TTITLE18=Clarabella
TTITLE19=I'm Gonna Sit Right Down And Cry (Over You)
TTITLE20=Crying, Waiting, Hoping
TTITLE21=Dear Wack!
TTITLE22=You Really Got A Hold On Me
TTITLE23=To Know Her Is To Love Her
TTITLE24=A Taste Of Honey
TTITLE25=Long Tall Sally
TTITLE26=I Saw Her Standing There
TTITLE27=The Honeymoon Song
TTITLE28=Johnny B Goode
TTITLE29=Memphis, Tennessee
TTITLE30=Lucille
TTITLE31=Can't Buy Me Love
TTITLE32=From Fluff To You
TTITLE33=Till There Was You
EXTD=
EXTT0=
EXTT1=
EXTT2=
EXTT3=
EXTT4=
EXTT5=
EXTT6=
EXTT7=
EXTT8=
EXTT9=
EXTT10=
EXTT11=
EXTT12=
EXTT13=
EXTT14=
EXTT15=
EXTT16=
EXTT17=
EXTT18=
EXTT19=
EXTT20=
EXTT21=
EXTT22=
EXTT23=
EXTT24=
EXTT25=
EXTT26=
EXTT27=
EXTT28=
EXTT29=
EXTT30=
EXTT31=
EXTT32=
EXTT33=
PLAYORDER=
